<svg width="37" height="37" viewBox="0 0 37 37" fill="none" xmlns="http://www.w3.org/2000/svg">
<path d="M31.8321 4.12271L20.2769 12.7049L22.4137 7.64154L31.8321 4.12271Z" fill="#E2761B" stroke="#E2761B" stroke-linecap="round" stroke-linejoin="round"/>
<path d="M5.15649 4.12271L16.6188 12.7862L14.5865 7.64154L5.15649 4.12271Z" fill="#E4761B" stroke="#E4761B" stroke-linecap="round" stroke-linejoin="round"/>
<path d="M27.6747 24.0163L24.5972 28.7313L31.1819 30.543L33.0749 24.1208L27.6747 24.0163Z" fill="#E4761B" stroke="#E4761B" stroke-linecap="round" stroke-linejoin="round"/>
<path d="M3.93701 24.1208L5.81837 30.543L12.4031 28.7313L9.32559 24.0163L3.93701 24.1208Z" fill="#E4761B" stroke="#E4761B" stroke-linecap="round" stroke-linejoin="round"/>
<path d="M12.0314 16.0496L10.1965 18.8252L16.7348 19.1155L16.5026 12.0894L12.0314 16.0496Z" fill="#E4761B" stroke="#E4761B" stroke-linecap="round" stroke-linejoin="round"/>
<path d="M24.957 16.0496L20.4278 12.0081L20.2769 19.1155L26.8035 18.8252L24.957 16.0496Z" fill="#E4761B" stroke="#E4761B" stroke-linecap="round" stroke-linejoin="round"/>
<path d="M12.4031 28.7313L16.3284 26.8151L12.9373 24.1673L12.4031 28.7313Z" fill="#E4761B" stroke="#E4761B" stroke-linecap="round" stroke-linejoin="round"/>
<path d="M20.6602 26.8151L24.5971 28.7313L24.0512 24.1673L20.6602 26.8151Z" fill="#E4761B" stroke="#E4761B" stroke-linecap="round" stroke-linejoin="round"/>
<path d="M24.5971 28.7313L20.6602 26.8151L20.9737 29.3817L20.9389 30.4617L24.5971 28.7313Z" fill="#D7C1B3" stroke="#D7C1B3" stroke-linecap="round" stroke-linejoin="round"/>
<path d="M12.4031 28.7313L16.0613 30.4617L16.038 29.3817L16.3284 26.8151L12.4031 28.7313Z" fill="#D7C1B3" stroke="#D7C1B3" stroke-linecap="round" stroke-linejoin="round"/>
<path d="M16.1192 22.4718L12.8442 21.5079L15.1553 20.451L16.1192 22.4718Z" fill="#233447" stroke="#233447" stroke-linecap="round" stroke-linejoin="round"/>
<path d="M20.8691 22.4718L21.833 20.451L24.1557 21.5079L20.8691 22.4718Z" fill="#233447" stroke="#233447" stroke-linecap="round" stroke-linejoin="round"/>
<path d="M12.403 28.7313L12.9604 24.0163L9.32544 24.1208L12.403 28.7313Z" fill="#CD6116" stroke="#CD6116" stroke-linecap="round" stroke-linejoin="round"/>
<path d="M24.0396 24.0163L24.597 28.7313L27.6745 24.1208L24.0396 24.0163Z" fill="#CD6116" stroke="#CD6116" stroke-linecap="round" stroke-linejoin="round"/>
<path d="M26.8035 18.8252L20.2769 19.1155L20.8807 22.4717L21.8446 20.451L24.1673 21.5078L26.8035 18.8252Z" fill="#CD6116" stroke="#CD6116" stroke-linecap="round" stroke-linejoin="round"/>
<path d="M12.8444 21.5078L15.167 20.451L16.1193 22.4717L16.7348 19.1155L10.1965 18.8252L12.8444 21.5078Z" fill="#CD6116" stroke="#CD6116" stroke-linecap="round" stroke-linejoin="round"/>
<path d="M10.1965 18.8252L12.9373 24.1673L12.8444 21.5078L10.1965 18.8252Z" fill="#E4751F" stroke="#E4751F" stroke-linecap="round" stroke-linejoin="round"/>
<path d="M24.1674 21.5078L24.0513 24.1673L26.8036 18.8252L24.1674 21.5078Z" fill="#E4751F" stroke="#E4751F" stroke-linecap="round" stroke-linejoin="round"/>
<path d="M16.7349 19.1155L16.1194 22.4718L16.8859 26.4319L17.0601 21.2175L16.7349 19.1155Z" fill="#E4751F" stroke="#E4751F" stroke-linecap="round" stroke-linejoin="round"/>
<path d="M20.2769 19.1155L19.9634 21.2059L20.1027 26.4319L20.8808 22.4718L20.2769 19.1155Z" fill="#E4751F" stroke="#E4751F" stroke-linecap="round" stroke-linejoin="round"/>
<path d="M20.8806 22.4718L20.1025 26.4319L20.66 26.8151L24.0511 24.1673L24.1672 21.5078L20.8806 22.4718Z" fill="#F6851B" stroke="#F6851B" stroke-linecap="round" stroke-linejoin="round"/>
<path d="M12.8442 21.5078L12.9371 24.1673L16.3282 26.8151L16.8857 26.4319L16.1192 22.4718L12.8442 21.5078Z" fill="#F6851B" stroke="#F6851B" stroke-linecap="round" stroke-linejoin="round"/>
<path d="M20.9389 30.4617L20.9737 29.3817L20.6834 29.1262H16.3051L16.038 29.3817L16.0613 30.4617L12.4031 28.7313L13.6805 29.7765L16.2703 31.5766H20.7182L23.3196 29.7765L24.597 28.7313L20.9389 30.4617Z" fill="#C0AD9E" stroke="#C0AD9E" stroke-linecap="round" stroke-linejoin="round"/>
<path d="M20.6602 26.8151L20.1027 26.4319H16.8859L16.3284 26.8151L16.0381 29.3817L16.3052 29.1262H20.6834L20.9737 29.3817L20.6602 26.8151Z" fill="#161616" stroke="#161616" stroke-linecap="round" stroke-linejoin="round"/>
<path d="M32.3199 13.2624L33.3071 8.52416L31.8322 4.12271L20.6602 12.4146L24.9571 16.0496L31.0308 17.8264L32.378 16.2586L31.7973 15.8405L32.7264 14.9928L32.0064 14.4353L32.9354 13.7269L32.3199 13.2624Z" fill="#763D16" stroke="#763D16" stroke-linecap="round" stroke-linejoin="round"/>
<path d="M3.69312 8.52416L4.68025 13.2624L4.05313 13.7269L4.98219 14.4353L4.27378 14.9928L5.20285 15.8405L4.62218 16.2586L5.95771 17.8264L12.0315 16.0496L16.3284 12.4146L5.15639 4.12271L3.69312 8.52416Z" fill="#763D16" stroke="#763D16" stroke-linecap="round" stroke-linejoin="round"/>
<path d="M31.0309 17.8264L24.9571 16.0496L26.8036 18.8252L24.0513 24.1673L27.6746 24.1208H33.0748L31.0309 17.8264Z" fill="#F6851B" stroke="#F6851B" stroke-linecap="round" stroke-linejoin="round"/>
<path d="M12.0315 16.0496L5.95773 17.8264L3.93701 24.1208H9.32559L12.9373 24.1673L10.1966 18.8252L12.0315 16.0496Z" fill="#F6851B" stroke="#F6851B" stroke-linecap="round" stroke-linejoin="round"/>
<path d="M20.2769 19.1155L20.6602 12.4146L22.4254 7.64157H14.5864L16.3284 12.4146L16.7349 19.1155L16.8742 21.2291L16.8859 26.4319H20.1027L20.126 21.2291L20.2769 19.1155Z" fill="#F6851B" stroke="#F6851B" stroke-linecap="round" stroke-linejoin="round"/>
</svg>
