<svg width="36" height="36" viewBox="0 0 36 36" fill="none" xmlns="http://www.w3.org/2000/svg">
<path d="M36 18C36 8.05887 27.9411 0 18 0C8.05887 0 0 8.05887 0 18C0 27.9411 8.05887 36 18 36C27.9411 36 36 27.9411 36 18Z" fill="url(#paint0_radial_539_293)"/>
<path d="M11.8976 12.9748C15.2679 9.67505 20.7323 9.67505 24.1025 12.9748L24.5082 13.372C24.6767 13.537 24.6767 13.8045 24.5082 13.9695L23.1206 15.328C23.0364 15.4105 22.8997 15.4105 22.8155 15.328L22.2573 14.7815C19.9061 12.4795 16.0941 12.4795 13.7429 14.7815L13.1451 15.3667C13.0608 15.4492 12.9242 15.4492 12.84 15.3667L11.4524 14.0082C11.2839 13.8432 11.2839 13.5757 11.4524 13.4107L11.8976 12.9748ZM26.9721 15.7844L28.207 16.9935C28.3755 17.1585 28.3755 17.426 28.207 17.591L22.6387 23.0429C22.4702 23.2079 22.197 23.2079 22.0285 23.0429C22.0285 23.0429 22.0285 23.0429 22.0285 23.0429L18.0764 19.1735C18.0343 19.1323 17.966 19.1323 17.9238 19.1735C17.9238 19.1735 17.9238 19.1735 17.9238 19.1735L13.9719 23.0429C13.8033 23.2079 13.5301 23.2079 13.3616 23.0429C13.3616 23.0429 13.3616 23.0429 13.3616 23.0429L7.79313 17.5909C7.62462 17.4259 7.62462 17.1584 7.79313 16.9934L9.02805 15.7843C9.19657 15.6194 9.46978 15.6194 9.6383 15.7843L13.5904 19.6538C13.6325 19.695 13.7008 19.695 13.743 19.6538C13.743 19.6538 13.743 19.6538 13.743 19.6538L17.6949 15.7843C17.8634 15.6193 18.1366 15.6193 18.3051 15.7843C18.3051 15.7843 18.3051 15.7843 18.3051 15.7843L22.2573 19.6538C22.2994 19.695 22.3677 19.695 22.4098 19.6538L26.3619 15.7844C26.5304 15.6194 26.8036 15.6194 26.9721 15.7844Z" fill="white"/>
<defs>
<radialGradient id="paint0_radial_539_293" cx="0" cy="0" r="1" gradientUnits="userSpaceOnUse" gradientTransform="translate(0 18) scale(36)">
<stop stop-color="#5D9DF6"/>
<stop offset="1" stop-color="#006FFF"/>
</radialGradient>
</defs>
</svg>
